# xmcd
#
# Track frame offsets: 
#        150
#        14051
#        26797
#        43480
#        53104
#        68559
#        80105
#        93703
#        110130
#        128055
#        143545
#        158870
#        173526
#        188705
#        204298
#
# Disc length: 2902 seconds
#
# Revision: 1
# Processed by: cddbd v1.5.2PL0 Copyright (c) Steve Scherf et al.
# Submitted via: ExactAudioCopy v0.99pb5
#
DISCID=d30b540f
DTITLE=Various Artist - Superstars Of Country [CD1]
DYEAR=2006
DGENRE=Country
TTITLE0=Loretta Lynn - Coal Miner's Daughter
TTITLE1=Mickey Gilley - Don't The Girls All Get Prettier At Closing Ti
TTITLE1=me
TTITLE2=Randy Travis - Forever And Ever, Amen
TTITLE3=Johnny Cash - Folsom Prison Blues
TTITLE4=George Jones - He Stopped Loving Her Today
TTITLE5=George Jones and Tammy Wynette - Two Story House
TTITLE6=Conway Twitty - Slow Hand
TTITLE7=Barbara Mandrell - I Was Country When Country Wasn't Cool
TTITLE8=Tom. T. Hall - (Old Dogs, Children And) Watermelon Wine
TTITLE9=Alabama - Old Flame
TTITLE10=David Frizzell and Shelly West - You're The Reason God Made Okl
TTITLE10=ahoma
TTITLE11=The Judds - Mama He's Crazy
TTITLE12=Oak Ridge Boys - Elvira
TTITLE13=Don Williams - I Believe In You
TTITLE14=Johnny Lee - Lookin' For Love
EXTD=
EXTT0=
EXTT1=
EXTT2=
EXTT3=
EXTT4=
EXTT5=
EXTT6=
EXTT7=
EXTT8=
EXTT9=
EXTT10=
EXTT11=
EXTT12=
EXTT13=
EXTT14=
PLAYORDER=
